<svg width="256" height="256" xmlns="http://www.w3.org/2000/svg" xml:space="preserve" version="1.1">

 <g>
  <title>Layer 1</title>
  <g id="svg_1">
   <g id="svg_2" data-name="Photo Surface">
    <rect id="svg_3" data-original="#470137" rx="42" data-name="Outline no shadow" fill="#470137" y="12" x="8" height="232" width="240"/>
   </g>
   <g id="svg_4" fill="#ff61f6">
    <path id="svg_5" data-original="#ff61f6" fill="#ff61f6" d="m131.37,77.64l-29.52,50.72l31.81,54c0.65,1.1 0.37,1.64 -0.82,1.64l-19.84,0a2.46,2.46 0 0 1 -2.44,-1.31l-22.39,-41.07l-0.17,0l-21.8,41.07a2.41,2.41 0 0 1 -2.12,1.31l-19.08,0c-1.09,0 -1.3,-0.54 -0.65,-1.64l31.28,-52.52l-29.8,-52.53c-0.65,-0.87 -0.43,-1.31 0.65,-1.31l19.88,0a2.24,2.24 0 0 1 2.12,1.15l21,40.58l0.16,0l20.89,-40.58a2.24,2.24 0 0 1 2.11,-1.15l18.08,0c1.2,0 1.41,0.55 0.65,1.64zm48.5,108.36c-11.6,0 -20.53,-3.29 -27.46,-9.86s-10.41,-16.28 -10.41,-29.14q0,-17.53 11.18,-28.8a40,40 0 0 1 29.48,-12.2a29.62,29.62 0 0 1 7.3,0.78l0,-33.84a0.83,0.83 0 0 1 0.93,-0.94l18.28,0c0.51,0 0.77,0.31 0.77,0.94l0,94.75c0,4 1.73,7.41 2,10.33a1.26,1.26 0 0 1 -0.78,1.41c-8.97,4.38 -20.73,6.57 -31.29,6.57zm10.13,-15.49l0,-48.37c-0.65,-1.14 -4.09,-2.14 -7.61,-2.14a19.58,19.58 0 0 0 -15.39,6.85a29.24,29.24 0 0 0 -7,19.4c0,8.76 3,14.76 6.91,18.93a19.9,19.9 0 0 0 14.82,6.82c3.73,0 7.38,-0.56 8.27,-1.49z"/>
   </g>
  </g>
 </g>
</svg>