<svg width="512" height="512" xmlns="http://www.w3.org/2000/svg" xml:space="preserve" version="1.1">

 <g>
  <title>Layer 1</title>
  <rect id="svg_3" height="403.99999" width="432.99999" y="59.6" x="43.99999" stroke="#000" fill="#fff"/>
  <g id="svg_1">
   <path id="svg_2" data-original="#ff3366" d="m512,46.413c0,-25.633 -20.78,-46.413 -46.413,-46.413l-419.174,0c-25.633,0 -46.413,20.78 -46.413,46.413l0,419.174c0,25.633 20.78,46.413 46.413,46.413l419.174,0c25.633,0 46.413,-20.78 46.413,-46.413l0,-419.174zm-341.396,53.53c17.022,0 31.278,13.337 31.278,30.809c0,17.485 -14.256,30.825 -31.278,30.825c-17.018,0 -31.274,-13.34 -31.274,-30.825c0,-17.473 14.256,-30.809 31.274,-30.809zm209.25,294.821c-31.737,0 -46.911,-18.848 -46.911,-44.614c0,-7.351 0.916,-15.178 3.216,-22.997l15.181,-54.273c1.838,-5.982 2.3,-11.496 2.3,-16.559c0,-17.472 -10.58,-28.055 -27.599,-28.055c-21.62,0 -35.878,15.516 -43.236,45.415l-29.44,118.077l-51.512,0l9.245,-37.107c-15.14,24.873 -36.169,40.279 -62.111,40.279c-31.277,0 -45.996,-18.018 -45.996,-45.16c0,-6.889 0.922,-15.334 2.76,-23.153l23.457,-95.829l-36.333,0l11.039,-40.727l87.39,0l-34.5,136.848c-2.3,8.745 -3.219,15.999 -3.219,21.05c0,8.751 4.307,11.309 11.043,12.828c4.101,0.919 36.787,0.277 54.584,-39.279l22.657,-90.72l-36.797,0l11.039,-40.727l78.651,0l-10.117,46.238c13.796,-25.761 41.395,-50.237 68.531,-50.237c28.977,0 52.897,20.643 52.897,60.199c0,10.114 -1.381,21.126 -5.06,33.541l-14.721,52.877c-1.376,5.532 -2.3,10.126 -2.3,14.264c0,9.195 3.682,13.792 10.583,13.792c6.898,0 15.637,-5.071 25.757,-33.114l20.235,7.813c-11.958,41.859 -33.575,59.33 -60.713,59.33z" fill="#ff3366"/>
  </g>
 </g>
</svg>