<svg width="512" height="512" xmlns="http://www.w3.org/2000/svg" xml:space="preserve" version="1.1">

 <g>
  <title>Layer 1</title>
  <g id="svg_1">
   <path id="svg_2" data-original="#001834" d="m90.667,6.4l330.667,0c50.133,0 90.666,40.533 90.666,90.667l0,317.867c0,50.133 -40.533,90.667 -90.667,90.667l-330.666,0c-50.134,-0.001 -90.667,-40.534 -90.667,-90.668l0,-317.866c0,-50.134 40.533,-90.667 90.667,-90.667z" fill="#001834"/>
   <g id="svg_3" fill="#00a9ff">
    <path id="svg_4" data-original="#00a9ff" fill="#00a9ff" d="m115.2,356.48l0,-219.52c0,-1.493 0.64,-2.347 2.133,-2.347c3.627,0 7.04,0 11.947,-0.213c5.12,-0.213 10.453,-0.213 16.213,-0.427s11.947,-0.213 18.56,-0.427c6.613,-0.213 13.013,-0.213 19.413,-0.213c17.493,0 32,2.133 43.947,6.613c10.667,3.627 20.48,9.6 28.587,17.493c6.827,6.827 12.16,15.147 15.573,24.32c3.2,8.96 4.907,18.133 4.907,27.733c0,18.347 -4.267,33.493 -12.8,45.44s-20.48,20.907 -34.347,26.027c-14.507,5.333 -30.507,7.253 -48,7.253c-5.12,0 -8.533,0 -10.667,-0.213c-2.133,-0.213 -5.12,-0.213 -9.173,-0.213l0,68.48c0.213,1.493 -0.853,2.773 -2.347,2.987l-41.386,0c-1.707,0 -2.56,-0.853 -2.56,-2.773zm46.507,-180.693l0,71.68c2.987,0.213 5.76,0.427 8.32,0.427l11.307,0c14.731,0 31.744,-3.462 42.026,-15.146c8.849,-10.056 8.874,-29.998 1.707,-40.96c-8.508,-13.013 -25.522,-16.783 -40.107,-16.427c-5.547,0 -10.453,0 -14.507,0.213c-4.266,-0.214 -7.253,-0.001 -8.746,0.213zm247.893,58.666c-6.4,-3.413 -13.227,-5.76 -20.48,-7.253c-7.893,-1.707 -15.787,-2.773 -23.893,-2.773c-4.267,-0.213 -8.747,0.427 -12.8,1.493c-2.773,0.64 -5.12,2.133 -6.613,4.267c-1.067,1.707 -1.707,3.84 -1.707,5.76s0.853,3.84 2.133,5.547c1.92,2.347 4.48,4.267 7.253,5.76c4.907,2.56 10.027,4.907 15.147,7.04c11.52,3.84 22.613,9.173 32.853,15.573c7.04,4.48 12.8,10.453 16.853,17.707c3.413,6.827 5.12,14.293 4.907,21.973c0.213,10.027 -2.773,20.053 -8.32,28.373c-5.973,8.533 -14.293,15.147 -23.893,18.987c-10.453,4.48 -23.253,6.827 -38.613,6.827c-9.813,0 -19.413,-0.853 -29.013,-2.773a86.055,86.055 0 0 1 -21.76,-6.827c-1.493,-0.853 -2.56,-2.347 -2.347,-4.053l0,-37.12c0,-0.64 0.213,-1.493 0.853,-1.92s1.28,-0.213 1.92,0.213c8.32,4.907 17.067,8.32 26.453,10.453c8.107,2.133 16.64,3.2 25.173,3.2c8.107,0 13.867,-1.067 17.707,-2.987c3.413,-1.493 5.76,-5.12 5.76,-8.96c0,-2.987 -1.707,-5.76 -5.12,-8.533s-10.453,-5.973 -20.907,-10.027c-10.88,-3.84 -20.907,-8.96 -30.293,-15.36c-6.613,-4.693 -12.16,-10.88 -16.213,-18.133c-3.413,-6.827 -5.12,-14.293 -4.907,-21.76c0,-9.173 2.56,-17.92 7.253,-25.813c5.333,-8.533 13.227,-15.36 22.4,-19.627c10.027,-5.12 22.613,-7.467 37.76,-7.467c8.747,0 17.707,0.64 26.453,1.92c6.4,0.853 12.587,2.56 18.347,4.907c0.853,0.213 1.707,1.067 2.133,1.92c0.213,0.853 0.427,1.707 0.427,2.56l0,34.773c0,0.853 -0.427,1.707 -1.067,2.133c-1.919,0.427 -2.986,0.427 -3.839,0z"/>
   </g>
  </g>
 </g>
</svg>