<svg version="1.2" xmlns="http://www.w3.org/2000/svg" viewBox="0 0 512 512" width="512" height="512"><defs><linearGradient id="P" gradientUnits="userSpaceOnUse"/><linearGradient id="g1" x2="1" href="#P" gradientTransform="matrix(391.163,219.53,-84.089,149.831,136.006,97.861)"><stop stop-color="#16ecfd"/><stop offset="1" stop-color="#124ae8"/></linearGradient><linearGradient id="g2" x2="1" href="#P" gradientTransform="matrix(-331.604,312.922,-197.051,-208.815,548.109,179.007)"><stop stop-color="#16ecfd"/><stop offset="1" stop-color="#124ae8"/></linearGradient><linearGradient id="g3" x2="1" href="#P" gradientTransform="matrix(163.938,87.385,-43.846,82.257,288.056,138.582)"><stop stop-color="#16ecfd"/><stop offset="1" stop-color="#124ae8"/></linearGradient><linearGradient id="g4" x2="1" href="#P" gradientTransform="matrix(184.185,0,0,323.472,345.252,242.233)"><stop stop-color="#16ecfd"/><stop offset="1" stop-color="#124ae8"/></linearGradient><linearGradient id="g5" x2="1" href="#P" gradientTransform="matrix(-308.082,130.616,-64.415,-151.935,450.524,280.042)"><stop stop-color="#16ecfd"/><stop offset="1" stop-color="#124ae8"/></linearGradient></defs><style>.a{fill:url(#g1)}.b{fill:url(#g2)}.c{fill:url(#g3)}.d{fill:url(#g4)}.e{fill:url(#g5)}</style><path class="a" d="m332.7 344.6h-65q-2.5 0-5-0.2c0 0-139.2 15.9-197.7-133.6-3.4 15.2-5.1 30.9-5 47 1.1 114.4 96 205.7 210.4 205.7h181.2c0-65.7-53.2-118.9-118.9-118.9z"/><path class="b" d="m267.7 48c-24.8 0-48.6 4.4-70.7 12.4-75.2 38.3-80.9 118.7-70.9 171.1 6 31.5 19.4 46.2 19.4 46.2-42.7-35.5-56.4-84-59.9-121.7-9.3 17-16.3 35.4-20.6 54.8 58.5 149.5 197.7 133.6 197.7 133.6-47.5-2.6-85.2-42.8-83.7-91.3 1-34.6 22.2-63.7 51.8-77.6 11.9-5.5 25-8.6 38.8-8.6h63.1c65.7 0 118.9-53.2 118.9-118.9z"/><path class="c" d="m301.5 240.5h67.6c2.6 0 4.9 0.7 7 1.7 0 0 28.2 2.5 34.9 32.5 3.7 16.3-2.9 30-9.4 38.8 20.7-11.7 34.5-34.3 33.5-60-1.3-35.7-31.8-63.5-67.6-63.5h-116.5c0 27.9 22.6 50.5 50.5 50.5z"/><path class="d" d="m411 274.7c-6.7-30-34.9-32.5-34.9-32.5 5.5 2.8 9.1 8.7 8.5 15.4-0.8 8.1-8.1 14-16.1 14h-0.1l20.8 47.4c4.3-1.4 8.5-3.2 12.4-5.5 6.5-8.8 13.1-22.5 9.4-38.8z"/><path class="e" d="m369.1 322.1c7 0 13.8-1.1 20.1-3.1 4.3-1.4 8.5-3.2 12.4-5.5 6.5-8.8 13.1-22.5 9.4-38.8-6.7-30-34.9-32.5-34.9-32.5 5.5 2.8 9.1 8.7 8.5 15.4-0.8 8.1-8.1 14-16.1 14h-0.1-66.9c-27.9 0-50.5 22.6-50.5 50.5z"/></svg>