<svg width="392" height="85" viewBox="0 0 392 85" fill="none" xmlns="http://www.w3.org/2000/svg">
<rect width="84" height="84" rx="10" fill="#F97316"/>
<g filter="url(#filter0_d_35_3)">
<path d="M66.4952 59.7267H26.3872V62.9977H66.4952V59.7267Z" fill="white"/>
<path d="M17.5919 46.8186H47.6088V50.0906C47.6088 50.0906 23.07 50.2117 21.4621 50.1576C19.8542 50.1035 19.4094 50.1219 18.5314 49.3089C17.6209 48.4659 17.5919 46.8186 17.5919 46.8186Z" fill="white"/>
<path d="M17.5919 33.8286H47.6088V37.1007C47.6088 37.1007 23.07 37.2217 21.4621 37.1676C19.8542 37.1135 19.4094 37.1319 18.5314 36.3189C17.6209 35.4759 17.5919 33.8286 17.5919 33.8286Z" fill="white"/>
<path d="M11.5 40.3412H47.6088V43.6132C47.6088 43.6132 18.0899 43.7343 16.1557 43.6802C14.2215 43.6261 13.6864 43.6445 12.6302 42.8315C11.535 41.9884 11.5 40.3412 11.5 40.3412Z" fill="white"/>
<path d="M66.4952 21.0023H26.3872V24.2733H66.4952V21.0023Z" fill="white"/>
<path d="M50.1674 27.4154H26.3872V30.6864H50.1674V27.4154Z" fill="white"/>
<path d="M66.5 60.0314V23.6143H63.367V60.0314H66.5Z" fill="white"/>
<path d="M56.2836 51.8273V31.6033H54.874V51.8273H56.2836Z" fill="white"/>
<path d="M60.0585 51.9032V32.0839H56.9256V51.9032H60.0585Z" fill="white"/>
<path d="M53.29 56.5832V27.4149H50.1571V56.5832H53.29Z" fill="white"/>
<path d="M29.5202 28.519V23.7416H26.3872V28.519H29.5202Z" fill="white"/>
<path d="M29.5202 60.3684V55.8333H26.3872V60.3684H29.5202Z" fill="white"/>
<path d="M50.1674 53.3136H26.3872V56.5846H50.1674V53.3136Z" fill="white"/>
<path d="M58.2217 49.0069L51.4536 53.687L53.2906 56.5828L60.0587 51.9027L58.2217 49.0069Z" fill="white"/>
<path d="M58.2241 34.9893L51.456 30.3092L53.293 27.4134L60.061 32.0935L58.2241 34.9893Z" fill="white"/>
</g>
<g filter="url(#filter1_d_35_3)">
<path d="M115.599 61L104.175 29.656H104.031C104.095 30.232 104.127 30.888 104.127 31.624C104.159 32.328 104.175 33.08 104.175 33.88C104.207 34.648 104.223 35.448 104.223 36.28V61H101.631V26.728H105.759L116.751 56.776H116.895L127.983 26.728H132.111V61H129.327V35.992C129.327 35.288 129.327 34.568 129.327 33.832C129.359 33.096 129.391 32.376 129.423 31.672C129.487 30.968 129.519 30.312 129.519 29.704H129.375L117.855 61H115.599ZM163.13 48.232C163.13 50.216 162.89 52.024 162.41 53.656C161.962 55.256 161.274 56.648 160.346 57.832C159.45 58.984 158.314 59.88 156.938 60.52C155.594 61.16 154.042 61.48 152.282 61.48C150.618 61.48 149.114 61.176 147.77 60.568C146.458 59.928 145.338 59.032 144.41 57.88C143.482 56.696 142.778 55.288 142.298 53.656C141.818 52.024 141.578 50.216 141.578 48.232C141.578 45.448 142.01 43.08 142.874 41.128C143.738 39.144 144.986 37.624 146.618 36.568C148.282 35.512 150.25 34.984 152.522 34.984C154.826 34.984 156.762 35.544 158.33 36.664C159.898 37.752 161.082 39.288 161.882 41.272C162.714 43.256 163.13 45.576 163.13 48.232ZM144.41 48.232C144.41 50.408 144.698 52.328 145.274 53.992C145.85 55.624 146.714 56.888 147.866 57.784C149.05 58.68 150.538 59.128 152.33 59.128C154.154 59.128 155.658 58.68 156.842 57.784C158.026 56.856 158.906 55.576 159.482 53.944C160.058 52.28 160.346 50.376 160.346 48.232C160.346 46.088 160.074 44.2 159.53 42.568C158.986 40.936 158.138 39.656 156.986 38.728C155.834 37.8 154.314 37.336 152.426 37.336C149.77 37.336 147.77 38.296 146.426 40.216C145.082 42.136 144.41 44.808 144.41 48.232ZM176.385 61L167.169 35.464H170.049L175.953 52.408C176.209 53.112 176.449 53.816 176.673 54.52C176.897 55.224 177.105 55.896 177.297 56.536C177.489 57.144 177.633 57.72 177.729 58.264H177.873C178.033 57.72 178.209 57.128 178.401 56.488C178.593 55.848 178.801 55.176 179.025 54.472C179.249 53.768 179.473 53.08 179.697 52.408L185.601 35.464H188.529L179.313 61H176.385ZM204.048 34.984C206.096 34.984 207.808 35.496 209.184 36.52C210.56 37.512 211.6 38.888 212.304 40.648C213.04 42.408 213.408 44.44 213.408 46.744V48.568H196.32C196.352 51.992 197.088 54.6 198.528 56.392C200 58.184 202.096 59.08 204.816 59.08C206.32 59.08 207.632 58.952 208.752 58.696C209.872 58.44 211.088 57.992 212.4 57.352V59.848C211.216 60.424 210.032 60.84 208.848 61.096C207.664 61.352 206.288 61.48 204.72 61.48C202.32 61.48 200.272 60.952 198.576 59.896C196.912 58.84 195.648 57.336 194.784 55.384C193.92 53.4 193.488 51.096 193.488 48.472C193.488 45.848 193.888 43.528 194.688 41.512C195.52 39.496 196.72 37.912 198.288 36.76C199.888 35.576 201.808 34.984 204.048 34.984ZM204 37.288C201.824 37.288 200.064 38.072 198.72 39.64C197.376 41.176 196.592 43.4 196.368 46.312H210.576C210.576 44.52 210.336 42.952 209.856 41.608C209.408 40.264 208.688 39.208 207.696 38.44C206.736 37.672 205.504 37.288 204 37.288Z" fill="white"/>
</g>
<g filter="url(#filter2_d_35_3)">
<path d="M235.563 61L225.195 31.864H225.003C225.035 32.504 225.083 33.368 225.147 34.456C225.211 35.544 225.259 36.712 225.291 37.96C225.323 39.208 225.339 40.44 225.339 41.656V61H220.635V26.728H228.027L237.867 54.232H238.059L248.187 26.728H255.579V61H250.539V41.368C250.539 40.248 250.555 39.096 250.587 37.912C250.651 36.696 250.699 35.56 250.731 34.504C250.795 33.448 250.843 32.584 250.875 31.912H250.683L240.027 61H235.563ZM262.585 35.128H268.057L273.433 49.816C273.721 50.552 273.977 51.272 274.201 51.976C274.425 52.68 274.617 53.384 274.777 54.088C274.969 54.76 275.113 55.432 275.209 56.104H275.401C275.561 55.272 275.817 54.296 276.169 53.176C276.521 52.024 276.889 50.888 277.273 49.768L282.361 35.128H287.833L276.745 64.504C276.137 66.168 275.385 67.592 274.489 68.776C273.593 69.992 272.521 70.92 271.273 71.56C270.057 72.2 268.617 72.52 266.953 72.52C266.153 72.52 265.465 72.472 264.889 72.376C264.313 72.312 263.817 72.232 263.401 72.136V68.104C263.753 68.168 264.169 68.232 264.649 68.296C265.161 68.36 265.689 68.392 266.233 68.392C267.225 68.392 268.073 68.2 268.777 67.816C269.513 67.432 270.121 66.888 270.601 66.184C271.113 65.48 271.545 64.68 271.897 63.784L272.953 61L262.585 35.128ZM304.842 26.728C307.754 26.728 310.186 27 312.138 27.544C314.122 28.088 315.61 29 316.602 30.28C317.626 31.528 318.138 33.192 318.138 35.272C318.138 36.616 317.898 37.816 317.418 38.872C316.938 39.896 316.234 40.76 315.306 41.464C314.41 42.136 313.29 42.584 311.946 42.808V43.048C313.322 43.272 314.554 43.688 315.642 44.296C316.73 44.872 317.594 45.72 318.234 46.84C318.874 47.96 319.194 49.416 319.194 51.208C319.194 53.288 318.698 55.064 317.706 56.536C316.746 57.976 315.354 59.08 313.53 59.848C311.738 60.616 309.594 61 307.098 61H294.81V26.728H304.842ZM305.706 41.032C308.394 41.032 310.234 40.6 311.226 39.736C312.25 38.872 312.762 37.592 312.762 35.896C312.762 34.168 312.154 32.936 310.938 32.2C309.722 31.464 307.786 31.096 305.13 31.096H299.994V41.032H305.706ZM299.994 45.256V56.68H306.282C309.066 56.68 311.002 56.136 312.09 55.048C313.178 53.96 313.722 52.52 313.722 50.728C313.722 49.64 313.482 48.68 313.002 47.848C312.522 47.016 311.706 46.376 310.554 45.928C309.434 45.48 307.898 45.256 305.946 45.256H299.994ZM350.934 48.04C350.934 50.184 350.646 52.088 350.07 53.752C349.494 55.416 348.678 56.824 347.622 57.976C346.566 59.128 345.286 60.008 343.782 60.616C342.278 61.192 340.582 61.48 338.694 61.48C336.966 61.48 335.366 61.192 333.894 60.616C332.422 60.008 331.142 59.128 330.054 57.976C328.998 56.824 328.166 55.416 327.558 53.752C326.95 52.088 326.646 50.168 326.646 47.992C326.646 45.144 327.126 42.728 328.086 40.744C329.078 38.76 330.486 37.256 332.31 36.232C334.166 35.176 336.342 34.648 338.838 34.648C341.206 34.648 343.286 35.176 345.078 36.232C346.902 37.256 348.326 38.76 349.35 40.744C350.406 42.728 350.934 45.16 350.934 48.04ZM331.878 48.04C331.878 49.96 332.118 51.624 332.598 53.032C333.078 54.408 333.83 55.464 334.854 56.2C335.878 56.936 337.19 57.304 338.79 57.304C340.39 57.304 341.702 56.936 342.726 56.2C343.75 55.464 344.502 54.408 344.982 53.032C345.462 51.624 345.702 49.96 345.702 48.04C345.702 46.056 345.446 44.392 344.934 43.048C344.454 41.704 343.702 40.68 342.678 39.976C341.686 39.24 340.374 38.872 338.742 38.872C336.342 38.872 334.598 39.672 333.51 41.272C332.422 42.872 331.878 45.128 331.878 48.04ZM364.751 47.8L355.967 35.128H361.775L367.919 44.44L374.063 35.128H379.823L371.039 47.8L380.255 61H374.495L367.919 51.112L361.295 61H355.535L364.751 47.8Z" fill="#F97316"/>
</g>
<defs>
<filter id="filter0_d_35_3" x="8.5" y="19.0023" width="69" height="55.9954" filterUnits="userSpaceOnUse" color-interpolation-filters="sRGB">
<feFlood flood-opacity="0" result="BackgroundImageFix"/>
<feColorMatrix in="SourceAlpha" type="matrix" values="0 0 0 0 0 0 0 0 0 0 0 0 0 0 0 0 0 0 127 0" result="hardAlpha"/>
<feOffset dx="4" dy="5"/>
<feGaussianBlur stdDeviation="3.5"/>
<feComposite in2="hardAlpha" operator="out"/>
<feColorMatrix type="matrix" values="0 0 0 0 0.793269 0 0 0 0 0.424053 0 0 0 0 0.167807 0 0 0 1 0"/>
<feBlend mode="normal" in2="BackgroundImageFix" result="effect1_dropShadow_35_3"/>
<feBlend mode="normal" in="SourceGraphic" in2="effect1_dropShadow_35_3" result="shape"/>
</filter>
<filter id="filter1_d_35_3" x="98.6308" y="24.728" width="125.777" height="48.752" filterUnits="userSpaceOnUse" color-interpolation-filters="sRGB">
<feFlood flood-opacity="0" result="BackgroundImageFix"/>
<feColorMatrix in="SourceAlpha" type="matrix" values="0 0 0 0 0 0 0 0 0 0 0 0 0 0 0 0 0 0 127 0" result="hardAlpha"/>
<feOffset dx="4" dy="5"/>
<feGaussianBlur stdDeviation="3.5"/>
<feComposite in2="hardAlpha" operator="out"/>
<feColorMatrix type="matrix" values="0 0 0 0 1 0 0 0 0 1 0 0 0 0 1 0 0 0 0.25 0"/>
<feBlend mode="normal" in2="BackgroundImageFix" result="effect1_dropShadow_35_3"/>
<feBlend mode="normal" in="SourceGraphic" in2="effect1_dropShadow_35_3" result="shape"/>
</filter>
<filter id="filter2_d_35_3" x="217.635" y="24.728" width="173.62" height="59.792" filterUnits="userSpaceOnUse" color-interpolation-filters="sRGB">
<feFlood flood-opacity="0" result="BackgroundImageFix"/>
<feColorMatrix in="SourceAlpha" type="matrix" values="0 0 0 0 0 0 0 0 0 0 0 0 0 0 0 0 0 0 127 0" result="hardAlpha"/>
<feOffset dx="4" dy="5"/>
<feGaussianBlur stdDeviation="3.5"/>
<feComposite in2="hardAlpha" operator="out"/>
<feColorMatrix type="matrix" values="0 0 0 0 0.976471 0 0 0 0 0.45098 0 0 0 0 0.0862745 0 0 0 0.25 0"/>
<feBlend mode="normal" in2="BackgroundImageFix" result="effect1_dropShadow_35_3"/>
<feBlend mode="normal" in="SourceGraphic" in2="effect1_dropShadow_35_3" result="shape"/>
</filter>
</defs>
</svg>
